<svg width="546" height="117" viewBox="0 0 546 117" fill="none" xmlns="http://www.w3.org/2000/svg">
<path d="M4.76 63H15.4V42.07C15.4 37.03 17.99 34.44 22.05 34.44C26.11 34.44 28.49 37.03 28.49 42.07V63H39.13V38.71C39.13 30.1 34.44 24.78 26.39 24.78C21 24.78 17.85 27.65 15.4 30.8V25.48H4.76V63ZM66.0133 63.84C72.8033 63.84 77.8433 61.18 81.3433 56.84L75.2533 51.45C72.3133 54.18 69.7233 55.3 66.1533 55.3C61.3933 55.3 58.0333 52.78 56.9833 47.95H83.0933C83.1633 46.97 83.2333 45.99 83.2333 45.15C83.2333 34.51 77.4933 24.78 64.9633 24.78C54.0433 24.78 46.4133 33.6 46.4133 44.31V44.45C46.4133 55.93 54.7433 63.84 66.0133 63.84ZM56.8433 41.3C57.6833 36.47 60.5533 33.32 64.9633 33.32C69.4433 33.32 72.2433 36.54 72.8733 41.3H56.8433ZM97.7156 63.28H107.236L114.586 40.25L121.796 63.28H131.386L143.076 25.48H132.506L126.346 48.3L119.206 25.34H110.036L102.966 48.23L96.9456 25.48H86.1656L97.7156 63.28ZM173.479 63.84C182.929 63.84 188.529 60.48 193.569 55.09L186.709 48.16C182.859 51.66 179.429 53.9 173.829 53.9C165.429 53.9 159.619 46.9 159.619 38.5V38.36C159.619 29.96 165.569 23.1 173.829 23.1C178.729 23.1 182.579 25.2 186.359 28.63L193.219 20.72C188.669 16.24 183.139 13.16 173.899 13.16C158.849 13.16 148.349 24.57 148.349 38.5V38.64C148.349 52.71 159.059 63.84 173.479 63.84ZM200.938 63H211.578V49.14C211.578 40.18 215.918 35.91 222.988 35.91H223.548V24.78C217.248 24.5 213.748 27.86 211.578 33.04V25.48H200.938V63ZM246.811 63.84C253.601 63.84 258.641 61.18 262.141 56.84L256.051 51.45C253.111 54.18 250.521 55.3 246.951 55.3C242.191 55.3 238.831 52.78 237.781 47.95H263.891C263.961 46.97 264.031 45.99 264.031 45.15C264.031 34.51 258.291 24.78 245.761 24.78C234.841 24.78 227.211 33.6 227.211 44.31V44.45C227.211 55.93 235.541 63.84 246.811 63.84ZM237.641 41.3C238.481 36.47 241.351 33.32 245.761 33.32C250.241 33.32 253.041 36.54 253.671 41.3H237.641ZM282.46 63.7C287.64 63.7 291.21 61.81 293.8 58.94V63H304.09V41.23C304.09 36.19 302.83 32.06 300.03 29.26C297.37 26.6 293.17 25.06 287.36 25.06C280.99 25.06 276.93 26.25 272.8 28.07L275.46 36.19C278.89 34.93 281.76 34.16 285.82 34.16C291.14 34.16 293.87 36.61 293.87 41.02V41.65C291.21 40.74 288.48 40.11 284.7 40.11C275.81 40.11 269.58 43.89 269.58 52.08V52.22C269.58 59.64 275.39 63.7 282.46 63.7ZM285.68 56.35C282.25 56.35 279.87 54.67 279.87 51.8V51.66C279.87 48.3 282.67 46.48 287.22 46.48C289.81 46.48 292.19 47.04 294.01 47.88V49.77C294.01 53.62 290.65 56.35 285.68 56.35ZM325.434 63.63C329.004 63.63 331.594 62.79 333.834 61.46V52.92C332.294 53.76 330.544 54.25 328.584 54.25C326.204 54.25 325.154 53.06 325.154 50.61V34.58H333.974V25.48H325.154V15.89H314.514V25.48H310.034V34.58H314.514V52.36C314.514 61.04 318.924 63.63 325.434 63.63ZM359.062 63.84C370.752 63.84 379.432 55.09 379.432 44.31V44.17C379.432 33.39 370.822 24.78 359.202 24.78C347.512 24.78 338.832 33.53 338.832 44.31V44.45C338.832 55.23 347.442 63.84 359.062 63.84ZM359.202 54.67C353.322 54.67 349.332 49.84 349.332 44.31V44.17C349.332 38.64 352.972 33.95 359.062 33.95C364.942 33.95 368.932 38.78 368.932 44.31V44.45C368.932 49.98 365.292 54.67 359.202 54.67ZM386.996 63H397.636V49.14C397.636 40.18 401.976 35.91 409.046 35.91H409.606V24.78C403.306 24.5 399.806 27.86 397.636 33.04V25.48H386.996V63ZM409.405 63H420.745V51.8H409.405V63ZM446.757 63.84C458.447 63.84 467.127 55.09 467.127 44.31V44.17C467.127 33.39 458.517 24.78 446.897 24.78C435.207 24.78 426.527 33.53 426.527 44.31V44.45C426.527 55.23 435.137 63.84 446.757 63.84ZM446.897 54.67C441.017 54.67 437.027 49.84 437.027 44.31V44.17C437.027 38.64 440.667 33.95 446.757 33.95C452.637 33.95 456.627 38.78 456.627 44.31V44.45C456.627 49.98 452.987 54.67 446.897 54.67ZM474.691 63H485.331V49.14C485.331 40.18 489.671 35.91 496.741 35.91H497.301V24.78C491.001 24.5 487.501 27.86 485.331 33.04V25.48H474.691V63ZM519.926 74.34C527.206 74.34 532.596 72.8 536.096 69.3C539.246 66.15 540.856 61.25 540.856 54.53V25.48H530.216V30.38C527.346 27.23 523.916 24.78 518.106 24.78C509.496 24.78 501.446 31.08 501.446 42.28V42.42C501.446 53.55 509.356 59.92 518.106 59.92C523.776 59.92 527.206 57.61 530.356 53.83V55.65C530.356 62.37 526.926 65.87 519.646 65.87C514.676 65.87 510.826 64.61 506.976 62.44L503.336 70.42C508.096 72.94 513.836 74.34 519.926 74.34ZM521.186 51.1C516.006 51.1 512.086 47.6 512.086 42.42V42.28C512.086 37.17 516.006 33.6 521.186 33.6C526.366 33.6 530.356 37.17 530.356 42.28V42.42C530.356 47.53 526.366 51.1 521.186 51.1Z" fill="black"/>
<path d="M14.76 104.7H8.34L8.18 103.62L6.34 104.14V101.08H7.66V102.9H14.76V104.7ZM19.3 102.9V100.7H14.76V99H18.44V96.84H14.76V95.06H12.4V96.84H8.86V99H12.4V100.7H8V98.82H6.34V95.08H4.16V98.82H3.22C3.34 98.02 3.44 97.22 3.52 96.42L1.54 96.1C1.36 98.46 1.04 100.94 0.4 102.54C0.86 102.78 1.72 103.32 2.08 103.62C2.36 102.9 2.62 102.04 2.82 101.08H4.16V104.76C2.82 105.12 1.58 105.44 0.6 105.66L1.16 107.94C2.06 107.68 3.08 107.38 4.16 107.06V113.74H6.34V106.4C6.92 106.22 7.52 106.02 8.1 105.84V106.9H10.52L8.8 107.96C9.66 108.92 10.68 110.24 11.08 111.1L12.98 109.88C12.5 109 11.46 107.78 10.58 106.9H14.76V111.04C14.76 111.3 14.68 111.36 14.34 111.38C14.02 111.38 12.94 111.38 11.94 111.34C12.26 112 12.58 113.02 12.66 113.7C14.16 113.7 15.28 113.66 16.1 113.3C16.9 112.92 17.1 112.28 17.1 111.08V106.9H19.12V104.7H17.1V102.9H19.3ZM28.76 99.34H41.06V102.08H43.52V97.08H36.2V95.08H33.68V97.08H26.42V102.08H28.76V99.34ZM36.18 108.06H41.68V105.82H36.18V103.32H40.46V101.06H29.46V103.32H33.72V110.38C32.54 109.8 31.6 108.84 31 107.24C31.18 106.44 31.32 105.6 31.44 104.7L28.96 104.46C28.6 107.88 27.62 110.64 25.46 112.24C26.02 112.6 27.02 113.44 27.42 113.86C28.56 112.88 29.44 111.6 30.08 110.08C31.92 112.92 34.66 113.52 38.34 113.52H43.34C43.46 112.82 43.84 111.68 44.18 111.1C42.84 111.16 39.54 111.16 38.46 111.16C37.66 111.16 36.9 111.12 36.18 111.04V108.06ZM59.9 105.9L58.46 106.1C58.54 105.52 58.58 104.98 58.58 104.48V95.16H56.24V97.72H51.34V99.94H56.24V102.32H51.56V104.48H56.24V104.5C56.24 105.04 56.18 105.72 56.02 106.42C53.92 106.7 51.96 106.94 50.5 107.08L50.96 109.44C52.16 109.26 53.58 109.04 55.08 108.8C54.3 110.12 53.02 111.36 51.02 112.2C51.58 112.68 52.36 113.42 52.76 113.98C55.64 112.58 57.16 110.42 57.9 108.34L59.98 108L59.9 105.9ZM69.2 106.94H63.44V104.48H68.4V102.32H63.44V99.94H68.84V97.72H63.44V95.16H61.06V113.74H63.44V109.14H69.2V106.94ZM89.68 111.06H80.3V109.32H89.68V111.06ZM81.92 102.92H87.86V104.32H81.92V102.92ZM90.16 106.06V101.16H79.72V106.06H83.36C83.28 106.46 83.16 106.88 83.06 107.28H78.04V113.78H80.3V113.12H89.68V113.78H92.04V107.28H85.42C85.6 106.9 85.78 106.5 85.94 106.06H90.16ZM90.68 98.16C91.24 97.5 91.84 96.7 92.42 95.94L89.86 95.14C89.48 96.1 88.72 97.3 88.08 98.16H84.8L86.2 97.64C85.92 96.92 85.26 95.78 84.68 95L82.6 95.7C83.08 96.46 83.62 97.44 83.9 98.16H80.82L81.46 97.88C81.12 97.14 80.34 96.08 79.68 95.32L77.62 96.22C78.08 96.8 78.58 97.52 78.94 98.16H76.5V102.42H78.68V100.18H91.18V102.42H93.48V98.16H90.68ZM106.88 103.16H110.32V100.98H106.88V98C108.1 97.7 109.26 97.36 110.26 96.96L108.58 95.12C106.64 96 103.42 96.76 100.54 97.18C100.82 97.68 101.12 98.52 101.22 99.04C102.3 98.9 103.44 98.72 104.58 98.5V100.98H100.78V103.16H104.12C103.22 105.24 101.76 107.52 100.32 108.92C100.7 109.52 101.28 110.54 101.52 111.24C102.62 110.08 103.68 108.36 104.58 106.54V113.7H106.88V106.8C107.68 107.62 108.52 108.52 109 109.14L110.38 107.1C109.84 106.68 107.86 104.98 106.88 104.24V103.16ZM113.58 97.48H111.26V108.66H113.58V97.48ZM115.98 95.44V110.82C115.98 111.18 115.82 111.3 115.44 111.32C115.02 111.32 113.74 111.32 112.44 111.26C112.8 111.94 113.16 113.04 113.26 113.72C115.08 113.74 116.42 113.66 117.24 113.26C118.06 112.88 118.34 112.22 118.34 110.84V95.44H115.98ZM131.56 97.32C130.7 96.76 128.96 95.88 127.84 95.32L126.5 97.04C127.66 97.7 129.36 98.64 130.14 99.24L131.56 97.32ZM130.6 102.72C129.72 102.18 127.94 101.32 126.84 100.78L125.56 102.54C126.74 103.18 128.46 104.12 129.28 104.7L130.6 102.72ZM127.84 113.52C129.06 111.58 130.32 109.3 131.38 107.2L129.64 105.6C128.44 107.92 126.9 110.4 125.84 111.9L127.84 113.52ZM140.82 110.76H134.82V107.82H140.82V110.76ZM144.08 103.14V100.86H139V98.12C140.56 97.82 142.06 97.42 143.34 96.94L141.52 95.06C139.32 95.94 135.56 96.6 132.16 96.94C132.44 97.48 132.76 98.4 132.86 98.98C134.1 98.86 135.44 98.72 136.74 98.52V100.86H131.42V103.14H136.74V105.66H132.66V113.74H134.82V112.92H140.82V113.64H143.08V105.66H139V103.14H144.08ZM156.64 109.6H160.26V107.92H156.64V107.14H160.18V100.96H156.64V100.18H160.48V101.74H162.3C162.16 105.32 161.68 108.18 160.12 110.34C158.96 110.44 157.78 110.54 156.64 110.62V109.6ZM152.92 105.66V104.76H154.48V105.66H152.92ZM158.2 104.76V105.66H156.64V104.76H158.2ZM156.64 103.34V102.46H158.2V103.34H156.64ZM152.92 102.46H154.48V103.34H152.92V102.46ZM164.62 99.56C164.66 98.24 164.66 96.84 164.66 95.38H162.38C162.38 96.86 162.38 98.24 162.36 99.56H160.48V98.46H156.64V97.48C157.94 97.34 159.18 97.16 160.24 96.94L159.2 95.16C157 95.64 153.54 95.98 150.58 96.14C150.8 96.6 151.02 97.34 151.1 97.82C152.18 97.8 153.32 97.74 154.48 97.66V98.46H150.54V100.18H154.48V100.96H151.04V107.14H154.48V107.92H150.96V109.6H154.48V110.8C152.94 110.9 151.54 111 150.42 111.08L150.7 113.08C152.86 112.9 155.74 112.6 158.62 112.3C159.14 112.74 159.72 113.4 160.02 113.88C163.38 111.22 164.3 107.1 164.56 101.74H166.36C166.24 108.2 166.04 110.64 165.62 111.18C165.44 111.44 165.24 111.52 164.94 111.52C164.56 111.52 163.8 111.5 162.92 111.42C163.32 112.08 163.58 113.04 163.62 113.7C164.58 113.72 165.5 113.74 166.1 113.62C166.76 113.48 167.22 113.28 167.68 112.62C168.32 111.7 168.48 108.8 168.66 100.62C168.66 100.34 168.68 99.56 168.68 99.56H164.62ZM181.62 97.16C180.76 96.48 179.08 95.62 177.8 95.12L176.48 96.9C177.8 97.44 179.44 98.4 180.22 99.1L181.62 97.16ZM180.44 102.38C179.58 101.72 177.86 100.96 176.58 100.52L175.36 102.32C176.66 102.82 178.32 103.7 179.12 104.38L180.44 102.38ZM179.44 105.66C178.32 107.96 176.9 110.44 175.9 111.94L177.96 113.46C179.08 111.54 180.24 109.26 181.22 107.18L179.44 105.66ZM194.3 112.52C193.68 110.84 192.08 108.46 190.6 106.7L188.56 107.78C189.1 108.48 189.66 109.26 190.16 110.06C188.4 110.16 186.62 110.26 185.02 110.34C185.74 108.84 186.54 107 187.18 105.32L187.1 105.3H193.82V103.02H188.54V100.2H192.88V97.92H188.54V95.08H186.06V97.92H181.92V100.2H186.06V103.02H180.92V105.3H184.34C183.86 106.98 183.16 108.96 182.44 110.48L180.94 110.54L181.26 112.94C183.96 112.74 187.74 112.48 191.36 112.16C191.66 112.72 191.88 113.28 192.04 113.74L194.3 112.52ZM208.02 95.52C207.88 98.16 208.16 107.24 200.18 111.66C200.98 112.22 201.76 112.94 202.18 113.56C206.4 110.98 208.5 107.12 209.58 103.52C210.7 107.2 212.94 111.32 217.46 113.56C217.84 112.92 218.56 112.1 219.3 111.54C211.84 108.04 210.84 99.42 210.68 96.66C210.7 96.24 210.72 95.84 210.74 95.52H208.02ZM228.04 98.42V101.32C228.72 101.28 229.64 101.24 230.4 101.24H238.66C239.36 101.24 240.3 101.3 240.88 101.32V98.42C240.32 98.48 239.46 98.54 238.66 98.54H230.38C229.7 98.54 228.76 98.5 228.04 98.42ZM226.36 108.2V111.26C227.1 111.2 228.08 111.14 228.86 111.14H240.34C240.94 111.14 241.84 111.18 242.54 111.26V108.2C241.86 108.28 241.02 108.32 240.34 108.32H228.86C228.08 108.32 227.14 108.26 226.36 108.2ZM264.78 102.46L262.84 101.52C262.6 101.66 261.78 101.74 261.36 101.74H256.24C255.7 101.74 254.78 101.68 254.26 101.62V104.26C254.84 104.22 255.62 104.16 256.26 104.16H261.66C261.6 105.28 261.16 108.12 260.88 109.82H254.4C253.7 109.82 252.96 109.78 252.42 109.72V112.32C253.18 112.28 253.68 112.26 254.4 112.26H264.92C265.46 112.26 266.44 112.3 266.84 112.32V109.74C266.32 109.8 265.4 109.82 264.88 109.82H263.6C263.9 107.92 264.42 104.48 264.58 103.3C264.62 103.1 264.68 102.72 264.78 102.46ZM276.4 102.74V105.88C277.14 105.82 278.48 105.78 279.62 105.78H290.36C291.2 105.78 292.22 105.86 292.7 105.88V102.74C292.18 102.78 291.3 102.86 290.36 102.86H279.62C278.58 102.86 277.12 102.8 276.4 102.74ZM310.98 96.4L308.06 95.44C307.88 96.12 307.46 97.04 307.16 97.54C306.16 99.26 304.42 101.84 300.92 103.98L303.16 105.64C305.12 104.3 306.86 102.54 308.2 100.8H313.82C313.5 102.3 312.34 104.7 310.98 106.26C309.24 108.24 307.02 109.98 302.92 111.2L305.28 113.32C309.04 111.84 311.46 110 313.36 107.68C315.16 105.44 316.3 102.78 316.84 101C317 100.5 317.28 99.94 317.5 99.56L315.46 98.3C315 98.44 314.34 98.54 313.72 98.54H309.7C309.72 98.5 309.74 98.48 309.76 98.44C310 98 310.52 97.1 310.98 96.4ZM340.54 96.48H337.52C337.6 97.04 337.64 97.68 337.64 98.48V102.28C337.64 105.4 337.38 106.9 336 108.4C334.8 109.7 333.18 110.46 331.2 110.92L333.28 113.12C334.74 112.66 336.82 111.68 338.14 110.24C339.62 108.6 340.46 106.74 340.46 102.44V98.48C340.46 97.68 340.5 97.04 340.54 96.48ZM331.26 96.64H328.38C328.44 97.1 328.46 97.8 328.46 98.18V104.92C328.46 105.52 328.38 106.3 328.36 106.68H331.26C331.22 106.22 331.2 105.44 331.2 104.94V98.18C331.2 97.54 331.22 97.1 331.26 96.64ZM352.22 98.04V100.78C352.72 100.74 353.58 100.7 354.12 100.7H357.98V108.86H352.9C352.28 108.86 351.56 108.8 350.94 108.7V111.6C351.6 111.52 352.3 111.5 352.9 111.5H366.08C366.54 111.5 367.38 111.52 367.96 111.6V108.7C367.44 108.78 366.8 108.86 366.08 108.86H360.78V100.7H365C365.58 100.7 366.28 100.74 366.88 100.78V98.04C366.3 98.1 365.6 98.16 365 98.16H354.12C353.56 98.16 352.74 98.1 352.22 98.04ZM375.64 104.22L376.9 106.74C379.36 106.02 381.9 104.94 383.96 103.86V110.26C383.96 111.14 383.9 112.4 383.82 112.88H386.98C386.84 112.38 386.8 111.14 386.8 110.26V102.18C388.74 100.9 390.66 99.34 392.18 97.84L390.02 95.78C388.72 97.36 386.44 99.36 384.38 100.64C382.16 102 379.22 103.3 375.64 104.22ZM409.939 96.16L407.039 95.26C406.859 95.94 406.439 96.86 406.119 97.34C405.119 99.08 403.259 101.82 399.759 104L401.919 105.66C403.939 104.26 405.799 102.34 407.199 100.48H412.919C412.619 101.72 411.759 103.46 410.719 104.9C409.459 104.06 408.199 103.24 407.139 102.64L405.359 104.46C406.379 105.1 407.699 106 408.999 106.96C407.339 108.62 405.119 110.24 401.659 111.3L403.979 113.32C407.099 112.14 409.379 110.44 411.139 108.58C411.959 109.24 412.699 109.86 413.239 110.36L415.139 108.1C414.559 107.62 413.779 107.04 412.919 106.42C414.339 104.42 415.339 102.28 415.879 100.66C416.059 100.16 416.319 99.62 416.539 99.24L414.499 97.98C414.059 98.12 413.379 98.2 412.759 98.2H408.699C408.939 97.76 409.439 96.86 409.939 96.16ZM425.359 102.74V105.88C426.099 105.82 427.439 105.78 428.579 105.78H439.319C440.159 105.78 441.179 105.86 441.659 105.88V102.74C441.139 102.78 440.259 102.86 439.319 102.86H428.579C427.539 102.86 426.079 102.8 425.359 102.74ZM458.479 101.84C457.079 101.84 455.919 103 455.919 104.4C455.919 105.8 457.079 106.96 458.479 106.96C459.879 106.96 461.039 105.8 461.039 104.4C461.039 103 459.879 101.84 458.479 101.84ZM487.119 95.98H484.279C484.359 96.5 484.419 97.14 484.479 98C484.499 98.44 484.519 98.92 484.539 99.44H477.919C477.239 99.44 476.279 99.38 475.699 99.3V101.96C476.399 101.92 477.259 101.88 477.979 101.88H483.439C481.839 104.16 478.539 106.98 474.639 108.82L476.479 110.9C479.639 109.22 482.879 106.44 484.639 104.14C484.679 106.2 484.679 108.2 484.679 109.54C484.679 110.12 484.479 110.38 483.979 110.38C483.299 110.38 482.219 110.3 481.319 110.14L481.539 112.74C482.679 112.82 483.799 112.86 485.019 112.86C486.539 112.86 487.279 112.12 487.259 110.84C487.219 108.14 487.139 104.8 487.079 101.88H489.659C490.199 101.88 490.959 101.92 491.599 101.94V99.28C491.119 99.36 490.179 99.44 489.519 99.44H487.019C487.019 98.92 486.999 98.44 486.999 98C486.999 97.38 487.039 96.6 487.119 95.98ZM508.459 111.56L510.139 112.94C510.319 112.78 510.559 112.58 510.999 112.34C513.239 111.2 516.119 109.04 517.779 106.88L516.239 104.68C514.899 106.62 512.919 108.2 511.299 108.9V98.44C511.299 97.54 511.419 96.76 511.439 96.7H508.459C508.479 96.76 508.619 97.52 508.619 98.42V110.08C508.619 110.62 508.539 111.18 508.459 111.56ZM499.199 111.26L501.639 112.88C503.339 111.36 504.599 109.4 505.199 107.14C505.739 105.12 505.799 100.9 505.799 98.54C505.799 97.7 505.919 96.82 505.939 96.72H502.999C503.119 97.22 503.179 97.76 503.179 98.56C503.179 100.98 503.159 104.76 502.599 106.48C502.039 108.18 500.959 110.02 499.199 111.26ZM538.939 95.62L537.359 96.26C537.859 96.98 538.419 98.04 538.819 98.84L538.679 98.76C538.239 98.9 537.559 99 536.939 99H532.939C532.959 98.96 532.979 98.94 532.999 98.9C533.219 98.46 533.739 97.56 534.219 96.86L531.279 95.9C531.099 96.58 530.679 97.5 530.379 97.98C529.399 99.7 527.639 102.3 524.139 104.42L526.379 106.1C528.359 104.76 530.099 103 531.439 101.26H537.059C536.739 102.74 535.579 105.16 534.219 106.7C532.459 108.7 530.239 110.44 526.159 111.66L528.519 113.78C532.279 112.28 534.679 110.46 536.579 108.12C538.399 105.9 539.539 103.24 540.079 101.46C540.239 100.96 540.519 100.4 540.739 100.02L539.039 98.98L540.519 98.36C540.159 97.62 539.439 96.34 538.939 95.62ZM541.299 94.72L539.719 95.36C540.279 96.12 540.919 97.28 541.339 98.12L542.919 97.44C542.559 96.74 541.819 95.46 541.299 94.72Z" fill="black"/>
</svg>
